<?xml version="1.0" encoding="iso-8859-1"?>
<!-- Generator: Adobe Illustrator 19.0.0, SVG Export Plug-In . SVG Version: 6.00 Build 0)  -->
<svg version="1.1" id="Capa_1" xmlns="http://www.w3.org/2000/svg" xmlns:xlink="http://www.w3.org/1999/xlink" x="0px" y="0px"
	 viewBox="0 0 480 480" style="enable-background:new 0 0 480 480;" xml:space="preserve">
<g>
	<path style="fill:#E9A868;" d="M95.342,453.699h289.315V131.507H95.342V453.699z M292.603,197.26v-19.726v-6.575v-13.151v-6.575
		h6.575h39.452h6.575v6.575v13.151v6.575v19.726v6.575h-6.575h-39.452h-6.575V197.26z M292.603,309.041v-39.452v-6.575v-13.151
		v-6.575h6.575h39.452h6.575v6.575v13.151v6.575v39.452v6.575h-6.575h-39.452h-6.575V309.041z M292.603,420.822V381.37v-6.575
		v-13.151v-6.575h6.575h39.452h6.575v6.575v13.151v6.575v39.452v6.575h-6.575h-39.452h-6.575V420.822z M213.699,197.26v-19.726
		v-6.575v-13.151v-6.575h6.575h39.452h6.575v6.575v13.151v6.575v19.726v6.575h-6.575h-39.452h-6.575V197.26z M213.699,309.041
		v-39.452v-6.575v-13.151v-6.575h6.575h39.452h6.575v6.575v13.151v6.575v39.452v6.575h-6.575h-39.452h-6.575V309.041z
		 M213.699,420.822V381.37v-6.575v-13.151v-6.575h6.575h39.452h6.575v6.575v13.151v6.575v39.452v6.575h-6.575h-39.452h-6.575
		V420.822z M134.795,197.26v-19.726v-6.575v-13.151v-6.575h6.575h39.452h6.575v6.575v13.151v6.575v19.726v6.575h-6.575H141.37
		h-6.575V197.26z M134.795,309.041v-39.452v-6.575v-13.151v-6.575h6.575h39.452h6.575v6.575v13.151v6.575v39.452v6.575h-6.575
		H141.37h-6.575V309.041z M134.795,420.822V381.37v-6.575v-13.151v-6.575h6.575h39.452h6.575v6.575v13.151v6.575v39.452v6.575
		h-6.575H141.37h-6.575V420.822z"/>
	<path style="fill:#E9A868;" d="M351.781,72.329V54.788C320.718,27.916,281.141,13.151,240,13.151
		c-41.141,0-80.718,14.766-111.781,41.637v17.541v39.452H95.342v13.151h289.315v-13.151h-32.877V72.329z M226.849,65.753v13.151
		v6.575v19.726v6.575h-6.575h-39.452h-6.575v-6.575V85.479v-6.575V65.753v-6.575h6.575h39.452h6.575V65.753z M305.754,65.753v13.151
		v6.575v19.726v6.575h-6.575h-39.452h-6.575v-6.575V85.479v-6.575V65.753v-6.575h6.575h39.452h6.575V65.753z"/>
	<polygon style="fill:#95FFFF;" points="299.178,381.37 299.178,420.822 338.63,420.822 	"/>
	<polygon style="fill:#80D7F0;" points="338.63,381.37 299.178,381.37 338.63,420.822 	"/>
	<rect x="299.178" y="361.644" style="fill:#6EB1E2;" width="39.452" height="13.151"/>
	<path style="fill:#695A69;" d="M338.63,427.397h6.575v-6.575V381.37v-6.575v-13.151v-6.575h-6.575h-39.452h-6.575v6.575v13.151
		v6.575v39.452v6.575h6.575H338.63z M299.178,361.644h39.452v13.151h-39.452V361.644z M299.178,381.37h39.452v39.452h-39.452V381.37
		z"/>
	<polygon style="fill:#95FFFF;" points="220.274,177.534 220.274,197.26 240,197.26 	"/>
	<polygon style="fill:#80D7F0;" points="259.726,197.26 259.726,177.534 220.274,177.534 240,197.26 	"/>
	<rect x="220.274" y="157.808" style="fill:#6EB1E2;" width="39.452" height="13.151"/>
	<path style="fill:#695A69;" d="M259.726,203.836h6.575v-6.575v-19.726v-6.575v-13.151v-6.575h-6.575h-39.452h-6.575v6.575v13.151
		v6.575v19.726v6.575h6.575H259.726z M220.274,157.808h39.452v13.151h-39.452V157.808z M220.274,177.534h39.452v19.726H240h-19.726
		V177.534z"/>
	<rect x="95.342" y="124.932" style="fill:#D6805C;" width="289.315" height="6.575"/>
	<rect x="95.342" y="453.699" style="fill:#D6805C;" width="289.315" height="26.301"/>
	<polygon style="fill:#D6805C;" points="128.219,72.329 95.342,72.329 95.342,105.206 95.342,111.781 128.219,111.781 	"/>
	<polygon style="fill:#D6805C;" points="351.781,111.781 384.658,111.781 384.658,105.206 384.658,72.329 351.781,72.329 	"/>
	<path style="fill:#695A69;" d="M364.932,59.178V48.877l-2.19-1.96C328.947,16.662,285.356,0,240,0
		c-45.356,0-88.947,16.662-122.742,46.917l-2.19,1.96v10.301H95.342v13.151h32.877V54.788C159.282,27.916,198.859,13.151,240,13.151
		c41.141,0,80.718,14.766,111.781,41.637v17.541h32.877V59.178H364.932z"/>
	<polygon style="fill:#95FFFF;" points="220.274,381.37 220.274,420.822 259.726,420.822 	"/>
	<polygon style="fill:#80D7F0;" points="259.726,381.37 220.274,381.37 259.726,420.822 	"/>
	<rect x="220.274" y="361.644" style="fill:#6EB1E2;" width="39.452" height="13.151"/>
	<path style="fill:#695A69;" d="M259.726,427.397h6.575v-6.575V381.37v-6.575v-13.151v-6.575h-6.575h-39.452h-6.575v6.575v13.151
		v6.575v39.452v6.575h6.575H259.726z M220.274,361.644h39.452v13.151h-39.452V361.644z M220.274,381.37h39.452v39.452h-39.452
		V381.37z"/>
	<polygon style="fill:#95FFFF;" points="141.37,381.37 141.37,420.822 180.822,420.822 	"/>
	<polygon style="fill:#80D7F0;" points="180.822,381.37 141.37,381.37 180.822,420.822 	"/>
	<rect x="141.37" y="361.644" style="fill:#6EB1E2;" width="39.452" height="13.151"/>
	<path style="fill:#695A69;" d="M180.822,427.397h6.575v-6.575V381.37v-6.575v-13.151v-6.575h-6.575H141.37h-6.575v6.575v13.151
		v6.575v39.452v6.575h6.575H180.822z M141.37,361.644h39.452v13.151H141.37V361.644z M141.37,381.37h39.452v39.452H141.37V381.37z"
		/>
	<polygon style="fill:#95FFFF;" points="299.178,269.589 299.178,309.041 338.63,309.041 	"/>
	<polygon style="fill:#80D7F0;" points="338.63,269.589 299.178,269.589 338.63,309.041 	"/>
	<rect x="299.178" y="249.863" style="fill:#6EB1E2;" width="39.452" height="13.151"/>
	<path style="fill:#695A69;" d="M338.63,315.616h6.575v-6.575v-39.452v-6.575v-13.151v-6.575h-6.575h-39.452h-6.575v6.575v13.151
		v6.575v39.452v6.575h6.575H338.63z M299.178,249.863h39.452v13.151h-39.452V249.863z M299.178,269.589h39.452v39.452h-39.452
		V269.589z"/>
	<polygon style="fill:#95FFFF;" points="220.274,269.589 220.274,309.041 259.726,309.041 	"/>
	<polygon style="fill:#80D7F0;" points="259.726,269.589 220.274,269.589 259.726,309.041 	"/>
	<rect x="220.274" y="249.863" style="fill:#6EB1E2;" width="39.452" height="13.151"/>
	<path style="fill:#695A69;" d="M259.726,315.616h6.575v-6.575v-39.452v-6.575v-13.151v-6.575h-6.575h-39.452h-6.575v6.575v13.151
		v6.575v39.452v6.575h6.575H259.726z M220.274,249.863h39.452v13.151h-39.452V249.863z M220.274,269.589h39.452v39.452h-39.452
		V269.589z"/>
	<polygon style="fill:#95FFFF;" points="141.37,269.589 141.37,309.041 180.822,309.041 	"/>
	<polygon style="fill:#80D7F0;" points="180.822,269.589 141.37,269.589 180.822,309.041 	"/>
	<rect x="141.37" y="249.863" style="fill:#6EB1E2;" width="39.452" height="13.151"/>
	<path style="fill:#695A69;" d="M180.822,315.616h6.575v-6.575v-39.452v-6.575v-13.151v-6.575h-6.575H141.37h-6.575v6.575v13.151
		v6.575v39.452v6.575h6.575H180.822z M141.37,249.863h39.452v13.151H141.37V249.863z M141.37,269.589h39.452v39.452H141.37V269.589z
		"/>
	<polygon style="fill:#95FFFF;" points="299.178,177.534 299.178,197.26 318.904,197.26 	"/>
	<polygon style="fill:#80D7F0;" points="338.63,197.26 338.63,177.534 299.178,177.534 318.904,197.26 	"/>
	<rect x="299.178" y="157.808" style="fill:#6EB1E2;" width="39.452" height="13.151"/>
	<path style="fill:#695A69;" d="M338.63,203.836h6.575v-6.575v-19.726v-6.575v-13.151v-6.575h-6.575h-39.452h-6.575v6.575v13.151
		v6.575v19.726v6.575h6.575H338.63z M299.178,157.808h39.452v13.151h-39.452V157.808z M299.178,177.534h39.452v19.726h-19.726
		h-19.726V177.534z"/>
	<polygon style="fill:#95FFFF;" points="141.37,177.534 141.37,197.26 161.096,197.26 	"/>
	<polygon style="fill:#80D7F0;" points="180.822,197.26 180.822,177.534 141.37,177.534 161.096,197.26 	"/>
	<rect x="141.37" y="157.808" style="fill:#6EB1E2;" width="39.452" height="13.151"/>
	<path style="fill:#695A69;" d="M180.822,203.836h6.575v-6.575v-19.726v-6.575v-13.151v-6.575h-6.575H141.37h-6.575v6.575v13.151
		v6.575v19.726v6.575h6.575H180.822z M141.37,157.808h39.452v13.151H141.37V157.808z M141.37,177.534h39.452v19.726h-19.726H141.37
		V177.534z"/>
	<polygon style="fill:#95FFFF;" points="259.726,105.206 279.452,105.206 259.726,85.479 	"/>
	<polygon style="fill:#80D7F0;" points="279.452,105.206 299.178,105.206 299.178,85.479 259.726,85.479 	"/>
	<rect x="259.726" y="65.753" style="fill:#6EB1E2;" width="39.452" height="13.151"/>
	<path style="fill:#695A69;" d="M259.726,59.178h-6.575v6.575v13.151v6.575v19.726v6.575h6.575h39.452h6.575v-6.575V85.479v-6.575
		V65.753v-6.575h-6.575H259.726z M299.178,105.206h-19.726h-19.726V85.479h39.452V105.206z M299.178,78.904h-39.452V65.753h39.452
		V78.904z"/>
	<polygon style="fill:#95FFFF;" points="180.822,105.206 200.548,105.206 180.822,85.479 	"/>
	<polygon style="fill:#80D7F0;" points="200.548,105.206 220.274,105.206 220.274,85.479 180.822,85.479 	"/>
	<rect x="180.822" y="65.753" style="fill:#6EB1E2;" width="39.452" height="13.151"/>
	<path style="fill:#695A69;" d="M180.822,59.178h-6.575v6.575v13.151v6.575v19.726v6.575h6.575h39.452h6.575v-6.575V85.479v-6.575
		V65.753v-6.575h-6.575H180.822z M220.274,105.206h-19.726h-19.726V85.479h39.452V105.206z M220.274,78.904h-39.452V65.753h39.452
		V78.904z"/>
</g>
<g>
</g>
<g>
</g>
<g>
</g>
<g>
</g>
<g>
</g>
<g>
</g>
<g>
</g>
<g>
</g>
<g>
</g>
<g>
</g>
<g>
</g>
<g>
</g>
<g>
</g>
<g>
</g>
<g>
</g>
</svg>
